<svg viewBox="0 0 24 24" width="34" height="34" fill="#ffffff" xmlns="http://www.w3.org/2000/svg">
  <path d="M17.472 14.382c-.297-.149-1.758-.867-2.03-.967-.273-.099-.471-.148-.67.15-.197.297-.767.966-.94 1.164-.173.199-.347.223-.644.075-.297-.15-1.255-.463-2.39-1.475-.888-.788-1.489-1.761-1.663-2.06-.173-.297-.018-.458.13-.606.134-.133.298-.347.446-.52.149-.174.198-.298.298-.497.099-.198.05-.371-.025-.52-.075-.149-.669-1.612-.916-2.207-.242-.579-.487-.5-.669-.51-.173-.008-.371-.01-.57-.01-.198 0-.52.074-.792.372-.272.297-1.04 1.016-1.04 2.479 0 1.462 1.065 2.875 1.213 3.074.149.198 2.096 3.2 5.077 4.487.709.306 1.262.489 1.694.625.712.227 1.36.195 1.871.118.571-.085 1.758-.719 2.006-1.413.248-.694.248-1.289.173-1.413-.074-.124-.272-.198-.57-.347zM11.964 21c-1.488 0-2.946-.381-4.223-1.101l-.302-.17-3.136.822.84-3.059-.187-.297A8.995 8.995 0 0 1 3.56 12c0-4.962 4.038-9 9.004-9 4.965 0 9.004 4.038 9.004 9s-4.039 9-9.004 9zm0-19.5C6.182 1.5 1.5 6.182 1.5 12c0 1.849.483 3.652 1.401 5.244L1.5 22.5l5.414-1.42A10.457 10.457 0 0 0 11.964 22.5c5.78 0 10.464-4.684 10.464-10.464S17.744 1.5 11.964 1.5z" />
</svg>